<svg width="229" height="76" viewBox="0 0 229 76" fill="none" xmlns="http://www.w3.org/2000/svg">
<g clip-path="url(#clip0_111_440)">
<path d="M210.764 0.000247H18.2464C17.5447 0.000247 16.8513 0.000247 16.1515 0.004047C15.5656 0.007847 14.9844 0.018886 14.3929 0.028177C13.1078 0.0431904 11.8259 0.155432 10.558 0.363926C9.29197 0.576959 8.06558 0.978587 6.92033 1.55523C5.77647 2.13674 4.7313 2.89237 3.82273 3.79468C2.90939 4.69446 2.14805 5.73448 1.56798 6.87475C0.986317 8.01275 0.582988 9.23223 0.371926 10.4911C0.158857 11.7483 0.0442032 13.02 0.0289924 14.2949C0.0112334 14.8774 0.00935795 15.4619 0 16.0445V59.9616C0.00935795 60.5515 0.0112334 61.1231 0.0289924 61.7132C0.0442078 62.988 0.158862 64.2596 0.371926 65.5168C0.582405 66.7764 0.985758 67.9965 1.56798 69.135C2.14778 70.2716 2.90923 71.3074 3.82273 72.2021C4.72786 73.1085 5.7737 73.8646 6.92033 74.4417C8.06557 75.0199 9.29183 75.4239 10.558 75.6402C11.8261 75.847 13.1079 75.9593 14.3929 75.9761C14.9844 75.989 15.5656 75.9964 16.1515 75.9964C16.8513 76.0002 17.5447 76.0002 18.2464 76.0002H210.764C211.452 76.0002 212.151 76.0002 212.838 75.9964C213.421 75.9964 214.019 75.989 214.603 75.9761C215.885 75.9602 217.165 75.8479 218.43 75.6402C219.7 75.4224 220.931 75.0184 222.082 74.4417C223.227 73.8643 224.272 73.1082 225.176 72.2021C226.088 71.3039 226.851 70.2688 227.438 69.135C228.016 67.9957 228.415 66.7756 228.622 65.5168C228.836 64.2595 228.955 62.9881 228.978 61.7132C228.985 61.1231 228.985 60.5515 228.985 59.9616C229 59.2713 229 58.5848 229 57.8834V18.1189C229 17.4231 229 16.7329 228.985 16.0445C228.985 15.4619 228.985 14.8774 228.978 14.2948C228.955 13.0198 228.836 11.7484 228.622 10.491C228.414 9.23288 228.015 8.0135 227.438 6.87467C226.256 4.58912 224.383 2.7287 222.082 1.55505C220.931 0.979825 219.7 0.578304 218.43 0.363755C217.165 0.154342 215.885 0.0420618 214.603 0.027911C214.019 0.018639 213.421 0.007505 212.838 0.0038C212.151 0 211.452 0 210.764 0V0.000247Z" fill="#A6A6A6"/>
<path d="M16.1608 74.3381C15.5777 74.3381 15.0087 74.3307 14.4302 74.3178C13.2319 74.3023 12.0363 74.1987 10.8533 74.0079C9.75022 73.8193 8.68164 73.4684 7.6828 72.9669C6.69312 72.4695 5.79045 71.8173 5.00938 71.0353C4.21699 70.2625 3.5573 69.3662 3.05643 68.382C2.55005 67.3913 2.1996 66.3294 2.0173 65.2333C1.82043 64.0555 1.71391 62.8646 1.69867 61.6708C1.68654 61.2701 1.67065 59.9359 1.67065 59.9359V16.0448C1.67065 16.0448 1.68757 14.7312 1.69877 14.3452C1.71336 13.1533 1.81926 11.9642 2.01554 10.7883C2.19818 9.68916 2.5489 8.62421 3.05555 7.63028C3.55458 6.64668 4.21061 5.74972 4.99822 4.97418C5.78494 4.19127 6.6905 3.53573 7.68186 3.03148C8.67841 2.53156 9.74497 2.18318 10.8458 1.998C12.0327 1.80527 13.2324 1.70108 14.435 1.68628L16.1617 1.66309H212.829L214.576 1.68722C215.768 1.70127 216.957 1.80454 218.133 1.99614C219.245 2.18364 220.322 2.53446 221.33 3.03705C223.316 4.05326 224.932 5.661 225.952 7.63492C226.45 8.62198 226.796 9.67825 226.976 10.7679C227.175 11.9535 227.286 13.1519 227.309 14.3536C227.314 14.8916 227.314 15.4696 227.314 16.0448C227.329 16.7573 227.329 17.4355 227.329 18.1192V57.8837C227.329 58.574 227.329 59.2475 227.314 59.9266C227.314 60.5445 227.314 61.1105 227.307 61.693C227.284 62.8733 227.175 64.0503 226.98 65.2147C226.801 66.3187 226.453 67.3889 225.946 68.3877C225.442 69.3613 224.786 70.2498 224.003 71.0205C223.221 71.8067 222.317 72.4627 221.325 72.9632C220.32 73.4686 219.244 73.8208 218.133 74.0079C216.95 74.1997 215.754 74.3033 214.556 74.3178C213.995 74.3307 213.408 74.3381 212.838 74.3381L210.764 74.3419L16.1608 74.3381Z" fill="black"/>
<path d="M47.4 38.5714C47.4206 36.9856 47.8448 35.4306 48.6333 34.0513C49.4218 32.672 50.5489 31.5131 51.9097 30.6825C51.0452 29.4567 49.9048 28.4479 48.5789 27.7363C47.2531 27.0246 45.7783 26.6297 44.2719 26.5829C41.0583 26.248 37.9429 28.4921 36.3054 28.4921C34.6361 28.4921 32.1148 26.6162 29.3998 26.6716C27.6437 26.7279 25.9322 27.235 24.4321 28.1433C22.932 29.0516 21.6944 30.3302 20.84 31.8546C17.139 38.2166 19.8996 47.5666 23.445 52.7091C25.2188 55.2273 27.2918 58.0401 30.0044 57.9404C32.6588 57.8311 33.6502 56.2599 36.8542 56.2599C40.0286 56.2599 40.9587 57.9404 43.7263 57.877C46.5746 57.8311 48.3692 55.3476 50.0807 52.8056C51.3552 51.0113 52.3359 49.0282 52.9865 46.9298C51.3317 46.2349 49.9196 45.0718 48.9261 43.5854C47.9327 42.0991 47.4019 40.3553 47.4 38.5714Z" fill="white"/>
<path d="M42.1726 23.2005C43.7256 21.3495 44.4907 18.9704 44.3055 16.5684C41.9328 16.8158 39.7411 17.9416 38.1672 19.7216C37.3976 20.5912 36.8082 21.6028 36.4326 22.6987C36.0571 23.7945 35.9027 24.9531 35.9784 26.1083C37.1652 26.1204 38.3393 25.865 39.4122 25.3613C40.4851 24.8577 41.429 24.1189 42.1726 23.2005Z" fill="white"/>
<path d="M80.9536 51.5646H71.8954L69.72 57.9419H65.8833L74.4631 34.3477H78.4494L87.0292 57.9419H83.127L80.9536 51.5646ZM72.8335 48.6218H80.0137L76.4741 38.272H76.375L72.8335 48.6218Z" fill="white"/>
<path d="M105.559 49.3418C105.559 54.6874 102.677 58.1218 98.3281 58.1218C97.2265 58.179 96.1309 57.9271 95.1668 57.3948C94.2027 56.8626 93.4091 56.0715 92.8767 55.1122H92.7944V63.6326H89.238V40.7398H92.6805V43.6009H92.7459C93.3027 42.6462 94.1098 41.8593 95.0812 41.3238C96.0527 40.7883 97.1522 40.5243 98.2627 40.5598C102.66 40.5598 105.559 44.011 105.559 49.3418ZM101.903 49.3418C101.903 45.8591 100.09 43.5694 97.3245 43.5694C94.6073 43.5694 92.7795 45.9073 92.7795 49.3418C92.7795 52.8078 94.6073 55.129 97.3245 55.129C100.09 55.129 101.903 52.856 101.903 49.3418Z" fill="white"/>
<path d="M124.628 49.3417C124.628 54.6874 121.747 58.1218 117.398 58.1218C116.296 58.179 115.201 57.9271 114.237 57.3948C113.272 56.8626 112.479 56.0715 111.946 55.1122H111.864V63.6325H108.308V40.7398H111.75V43.6009H111.816C112.372 42.6462 113.179 41.8593 114.151 41.3238C115.122 40.7883 116.222 40.5242 117.332 40.5598C121.73 40.5598 124.628 44.011 124.628 49.3417ZM120.973 49.3417C120.973 45.859 119.16 43.5694 116.394 43.5694C113.677 43.5694 111.849 45.9073 111.849 49.3417C111.849 52.8078 113.677 55.129 116.394 55.129C119.16 55.129 120.973 52.856 120.973 49.3417H120.973Z" fill="white"/>
<path d="M137.232 51.3678C137.495 53.7075 139.785 55.2438 142.913 55.2438C145.911 55.2438 148.067 53.7075 148.067 51.5978C148.067 49.7664 146.767 48.6699 143.687 47.9184L140.607 47.1817C136.243 46.1353 134.217 44.1091 134.217 40.8212C134.217 36.7503 137.791 33.9541 142.865 33.9541C147.886 33.9541 151.329 36.7503 151.444 40.8212H147.854C147.639 38.4666 145.679 37.0453 142.814 37.0453C139.949 37.0453 137.989 38.4833 137.989 40.5763C137.989 42.2444 139.241 43.2259 142.304 43.9773L144.922 44.6156C149.798 45.7604 151.824 47.705 151.824 51.1561C151.824 55.5702 148.282 58.3349 142.65 58.3349C137.379 58.3349 133.821 55.6352 133.591 51.3676L137.232 51.3678Z" fill="white"/>
<path d="M159.499 36.6689V40.7398H162.794V43.536H159.499V53.0193C159.499 54.4926 160.159 55.1791 161.607 55.1791C161.998 55.1723 162.389 55.1451 162.777 55.0974V57.8769C162.126 57.9977 161.464 58.0524 160.802 58.0402C157.294 58.0402 155.926 56.7321 155.926 53.3959V43.536H153.407V40.7398H155.926V36.6689H159.499Z" fill="white"/>
<path d="M164.702 49.3418C164.702 43.9294 167.913 40.5283 172.919 40.5283C177.943 40.5283 181.138 43.9293 181.138 49.3418C181.138 54.769 177.96 58.1553 172.919 58.1553C167.881 58.1553 164.702 54.769 164.702 49.3418ZM177.515 49.3418C177.515 45.629 175.801 43.4377 172.919 43.4377C170.038 43.4377 168.326 45.6457 168.326 49.3418C168.326 53.0694 170.038 55.244 172.919 55.244C175.801 55.244 177.515 53.0694 177.515 49.3418H177.515Z" fill="white"/>
<path d="M184.07 40.7396H187.462V43.6675H187.545C187.774 42.7531 188.314 41.945 189.073 41.379C189.832 40.813 190.764 40.5237 191.712 40.5596C192.122 40.5582 192.531 40.6024 192.931 40.6914V43.9941C192.413 43.8371 191.874 43.7651 191.333 43.7807C190.816 43.7599 190.301 43.8504 189.823 44.0459C189.345 44.2413 188.915 44.5372 188.563 44.9132C188.211 45.2892 187.945 45.7364 187.783 46.2241C187.622 46.7117 187.568 47.2284 187.627 47.7384V57.9417H184.07L184.07 40.7396Z" fill="white"/>
<path d="M209.328 52.8895C208.849 56.0122 205.786 58.1553 201.867 58.1553C196.827 58.1553 193.699 54.8024 193.699 49.4234C193.699 44.0277 196.844 40.5283 201.718 40.5283C206.511 40.5283 209.526 43.7976 209.526 49.0134V50.2231H197.289V50.4365C197.232 51.0696 197.312 51.7074 197.523 52.3075C197.734 52.9076 198.071 53.4562 198.512 53.9171C198.952 54.3779 199.487 54.7404 200.08 54.9804C200.672 55.2203 201.31 55.3324 201.95 55.309C202.79 55.3872 203.633 55.1939 204.354 54.758C205.075 54.322 205.635 53.6667 205.951 52.8894L209.328 52.8895ZM197.305 47.7554H205.968C205.999 47.1861 205.913 46.6165 205.712 46.0822C205.512 45.5479 205.202 45.0605 204.803 44.6505C204.404 44.2406 203.924 43.9169 203.393 43.6999C202.862 43.4829 202.292 43.3772 201.718 43.3895C201.139 43.386 200.565 43.4965 200.029 43.7145C199.493 43.9325 199.006 44.2537 198.595 44.6596C198.185 45.0656 197.86 45.5481 197.639 46.0794C197.417 46.6108 197.304 47.1804 197.305 47.7554V47.7554Z" fill="white"/>
<path d="M70.3057 21.381H71.8326C72.0954 21.4135 72.3622 21.3916 72.616 21.3167C72.8699 21.2417 73.1054 21.1154 73.3077 20.9456C73.51 20.7758 73.6746 20.5663 73.7912 20.3302C73.9079 20.0941 73.974 19.8366 73.9855 19.5738C73.9855 18.5283 73.1931 17.8529 71.8494 17.8529C71.5801 17.8155 71.306 17.8321 71.0433 17.9017C70.7806 17.9712 70.5345 18.0923 70.3198 18.2579C70.105 18.4234 69.9257 18.6299 69.7927 18.8654C69.6596 19.1008 69.5755 19.3603 69.5451 19.6286H67.8687C67.8975 19.1416 68.0271 18.6657 68.2492 18.2306C68.4713 17.7955 68.7812 17.4104 69.1597 17.0994C69.5382 16.7884 69.9772 16.558 70.4492 16.4227C70.9213 16.2874 71.4163 16.25 71.9035 16.3128C74.1517 16.3128 75.7347 17.5625 75.7347 19.3614C75.74 19.964 75.5369 20.5502 75.1594 21.0221C74.7819 21.494 74.2527 21.8231 73.6603 21.9544V22.088C74.3626 22.1189 75.024 22.4247 75.5 22.9384C75.9759 23.4521 76.2276 24.132 76.2001 24.8294C76.1481 25.3308 75.9958 25.8169 75.7522 26.2591C75.5086 26.7013 75.1785 27.0908 74.7813 27.4047C74.3841 27.7186 73.9278 27.9506 73.4391 28.0872C72.9504 28.2237 72.4392 28.2621 71.9354 28.1999C71.4305 28.2682 70.9169 28.235 70.4253 28.102C69.9337 27.9691 69.4741 27.7393 69.0738 27.4262C68.6736 27.1132 68.3409 26.7233 68.0957 26.2799C67.8504 25.8364 67.6976 25.3485 67.6464 24.8452H69.3489C69.4517 25.9297 70.4552 26.6293 71.9354 26.6293C73.4155 26.6293 74.3817 25.8435 74.3817 24.7358C74.3817 23.6123 73.4715 22.9202 71.8812 22.9202H70.3057V21.381Z" fill="white"/>
<path d="M78.1343 25.5053C78.1343 23.9652 79.2911 23.0774 81.3393 22.9512L83.6735 22.8176V22.0791C83.6735 21.1755 83.0736 20.6653 81.9093 20.6653C80.96 20.6653 80.304 21.0113 80.1134 21.6162H78.4669C78.6407 20.1467 80.0349 19.2041 81.9897 19.2041C84.1501 19.2041 85.3686 20.2719 85.3686 22.0791V27.9248H83.7296V26.7225H83.595C83.3219 27.1537 82.9384 27.5053 82.4837 27.7413C82.0289 27.9773 81.5193 28.0893 81.0067 28.0658C80.6449 28.1031 80.2793 28.0648 79.9334 27.9533C79.5875 27.8417 79.2689 27.6595 78.9983 27.4182C78.7277 27.177 78.511 26.8821 78.3621 26.5526C78.2133 26.2232 78.1357 25.8664 78.1343 25.5053ZM83.6735 24.7742V24.0589L81.5691 24.1925C80.3824 24.2714 79.8442 24.6721 79.8442 25.4264C79.8442 26.1964 80.517 26.6445 81.4421 26.6445C81.7132 26.6718 81.987 26.6446 82.2473 26.5646C82.5076 26.4847 82.749 26.3535 82.9572 26.179C83.1654 26.0045 83.3361 25.7902 83.4591 25.5489C83.5822 25.3075 83.6551 25.0441 83.6735 24.7742Z" fill="white"/>
<path d="M89.8818 20.7914V27.9257H88.1812V19.3701H93.855V20.7913L89.8818 20.7914Z" fill="white"/>
<path d="M104.161 23.6444C104.161 26.3627 102.777 28.0669 100.601 28.0669C100.067 28.1031 99.5341 27.9871 99.0642 27.7325C98.5944 27.4779 98.2077 27.0953 97.9495 26.6299H97.8149V30.7703H96.1143V19.3703H97.7514V20.7843H97.8785C98.1413 20.3025 98.5331 19.9022 99.0106 19.6277C99.4882 19.3531 100.033 19.215 100.585 19.2284C102.777 19.2284 104.161 20.9252 104.161 23.6444ZM102.412 23.6444C102.412 21.8372 101.551 20.7452 100.11 20.7452C98.6784 20.7452 97.7832 21.8604 97.7832 23.6518C97.7832 25.4349 98.6783 26.551 100.102 26.551C101.551 26.551 102.412 25.459 102.412 23.6444Z" fill="white"/>
<path d="M106.427 30.99V29.5362C106.611 29.5595 106.796 29.57 106.981 29.5678C107.344 29.5944 107.703 29.4873 107.991 29.2669C108.279 29.0466 108.474 28.7285 108.54 28.3738L108.667 27.9572L105.548 19.3701H107.4L109.561 26.1658H109.695L111.848 19.3701H113.651L110.439 28.2792C109.703 30.361 108.888 31.029 107.131 31.029C106.989 31.029 106.585 31.0132 106.427 30.99Z" fill="white"/>
<path d="M114.976 25.4966H116.67C116.836 26.2509 117.548 26.6442 118.544 26.6442C119.677 26.6442 120.372 26.1488 120.372 25.3788C120.372 24.5541 119.748 24.1607 118.544 24.1607H117.255V22.8489H118.522C119.549 22.8489 120.073 22.4565 120.073 21.7412C120.073 21.1131 119.566 20.6335 118.522 20.6335C117.57 20.6335 116.875 21.0343 116.765 21.7097H115.126C115.248 20.9336 115.673 20.2363 116.308 19.7677C116.943 19.2991 117.738 19.0966 118.522 19.2039C120.57 19.2039 121.742 20.1233 121.742 21.5687C121.751 21.9712 121.621 22.3647 121.374 22.6836C121.126 23.0024 120.776 23.2271 120.381 23.3202V23.4538C120.851 23.514 121.282 23.7432 121.593 24.0981C121.903 24.4529 122.072 24.9087 122.067 25.3789C122.067 27.0053 120.673 28.0814 118.544 28.0814C116.662 28.0813 115.133 27.225 114.976 25.4966Z" fill="white"/>
<path d="M124.516 27.9257V19.3701H126.202V25.2548H126.336L130.308 19.3701H131.993V27.9257H130.308V22.0096H130.18L126.202 27.9257L124.516 27.9257Z" fill="white"/>
<path d="M141.279 20.7913H138.566V27.9256H136.863V20.7913H134.15V19.3701H141.279V20.7913Z" fill="white"/>
<path d="M150.44 25.6149C150.209 26.3968 149.708 27.073 149.025 27.5254C148.342 27.9778 147.521 28.1777 146.705 28.0901C146.137 28.105 145.573 27.997 145.051 27.7737C144.53 27.5504 144.063 27.2171 143.685 26.7969C143.306 26.3768 143.024 25.8798 142.858 25.3405C142.692 24.8013 142.646 24.2326 142.724 23.6741C142.648 23.1138 142.695 22.5439 142.86 22.003C143.026 21.4622 143.307 20.9629 143.683 20.5391C144.06 20.1152 144.524 19.7767 145.044 19.5464C145.564 19.3161 146.128 19.1994 146.697 19.2042C149.095 19.2042 150.543 20.8306 150.543 23.5172V24.1064H144.458V24.2011C144.431 24.5151 144.471 24.8312 144.574 25.1292C144.678 25.4272 144.843 25.7003 145.059 25.9312C145.275 26.162 145.538 26.3454 145.829 26.4695C146.121 26.5937 146.436 26.6559 146.753 26.6521C147.16 26.7003 147.572 26.6275 147.936 26.4428C148.301 26.2581 148.602 25.9699 148.801 25.6148L150.44 25.6149ZM144.458 22.8577H148.809C148.83 22.5707 148.791 22.2824 148.694 22.0113C148.596 21.7403 148.443 21.4924 148.243 21.2837C148.044 21.075 147.803 20.91 147.535 20.7994C147.267 20.6888 146.979 20.6349 146.69 20.6413C146.395 20.6374 146.103 20.692 145.831 20.802C145.558 20.9119 145.311 21.0751 145.103 21.2817C144.895 21.4883 144.73 21.7342 144.62 22.0049C144.509 22.2756 144.454 22.5656 144.458 22.8577H144.458Z" fill="white"/>
<path d="M157.651 19.3701H161.536C163.222 19.3701 164.21 20.2181 164.21 21.5456C164.213 21.9669 164.07 22.3762 163.805 22.7052C163.54 23.0342 163.169 23.2628 162.754 23.3528V23.4864C163.258 23.518 163.729 23.7403 164.072 24.1073C164.415 24.4744 164.603 24.9582 164.597 25.4588C164.597 26.9515 163.466 27.9256 161.575 27.9256H157.651V19.3701ZM159.336 20.6662V22.8816H161.022C162.05 22.8816 162.541 22.4891 162.541 21.7655C162.541 21.0985 162.113 20.6661 161.211 20.6661L159.336 20.6662ZM159.336 24.1229V26.6297H161.353C162.358 26.6297 162.896 26.189 162.896 25.38C162.896 24.5237 162.287 24.1229 161.14 24.1229L159.336 24.1229Z" fill="white"/>
</g>
<defs>
<clipPath id="clip0_111_440">
<rect width="229" height="76" fill="white"/>
</clipPath>
</defs>
</svg>
