<svg width="40" height="40" viewBox="0 0 40 40" fill="none" xmlns="http://www.w3.org/2000/svg">
<mask id="mask0_177_96" style="mask-type:alpha" maskUnits="userSpaceOnUse" x="0" y="0" width="40" height="40">
<rect width="40" height="40" fill="#D9D9D9"/>
</mask>
<g mask="url(#mask0_177_96)">
<path d="M8.56883 26.1484H11.9384C11.8643 25.2517 11.5086 24.4778 10.8711 23.8267C10.2336 23.1756 9.46619 22.8263 8.56883 22.7788V26.1484ZM13.93 26.1484H16.3828C16.3828 23.9726 15.621 22.1262 14.0972 20.6095C12.5735 19.0928 10.7307 18.3344 8.56883 18.3344V20.7873C10.0596 20.7873 11.3258 21.3122 12.3675 22.362C13.4091 23.4117 13.93 24.6739 13.93 26.1484ZM18.3744 26.1484H20.8273C20.8273 24.4703 20.5062 22.8849 19.864 21.3922C19.2218 19.8995 18.3472 18.597 17.2402 17.4848C16.1333 16.3726 14.8318 15.4954 13.3358 14.8532C11.8397 14.2111 10.2507 13.89 8.56883 13.89V16.3429C11.3003 16.3429 13.6174 17.2969 15.5202 19.2049C17.423 21.1129 18.3744 23.4274 18.3744 26.1484ZM13.2657 35.6829V32.0591H6.34662C5.3344 32.0591 4.46922 31.6985 3.75108 30.9772C3.03294 30.256 2.67387 29.3872 2.67387 28.3706V8.01317C2.67387 6.99664 3.03294 6.12776 3.75108 5.40654C4.46922 4.68532 5.3344 4.32471 6.34662 4.32471H33.6534C34.6699 4.32471 35.5388 4.68532 36.26 5.40654C36.9812 6.12776 37.3418 6.99664 37.3418 8.01317V28.3706C37.3418 29.3872 36.9812 30.256 36.26 30.9772C35.5388 31.6985 34.6699 32.0591 33.6534 32.0591H26.75V35.6829H13.2657ZM6.34662 28.3706H33.6534V8.01317H6.34662V28.3706Z" fill="#1C1B1F"/>
</g>
</svg>
