<svg width="229" height="68" viewBox="0 0 229 68" fill="none" xmlns="http://www.w3.org/2000/svg">
<g clip-path="url(#clip0_111_439)">
<path d="M220.519 0H8.48148C3.79729 0 0 3.80558 0 8.5V59.5C0 64.1944 3.79729 68 8.48148 68H220.519C225.203 68 229 64.1944 229 59.5V8.5C229 3.80558 225.203 0 220.519 0Z" fill="black"/>
<path d="M220.519 1.36C222.408 1.36 224.22 2.11225 225.556 3.45126C226.892 4.79027 227.643 6.60635 227.643 8.5V59.5C227.643 61.3936 226.892 63.2097 225.556 64.5487C224.22 65.8878 222.408 66.64 220.519 66.64H8.48148C6.59196 66.64 4.77983 65.8878 3.44374 64.5487C2.10765 63.2097 1.35704 61.3936 1.35704 59.5V8.5C1.35704 6.60635 2.10765 4.79027 3.44374 3.45126C4.77983 2.11225 6.59196 1.36 8.48148 1.36H220.519ZM220.519 0H8.48148C6.23205 0 4.07475 0.895533 2.48417 2.48959C0.893582 4.08365 0 6.24566 0 8.5V59.5C0 61.7543 0.893582 63.9164 2.48417 65.5104C4.07475 67.1045 6.23205 68 8.48148 68H220.519C222.768 68 224.925 67.1045 226.516 65.5104C228.106 63.9164 229 61.7543 229 59.5V8.5C229 6.24566 228.106 4.08365 226.516 2.48959C224.925 0.895533 222.768 0 220.519 0Z" fill="#A6A6A6"/>
<path d="M115.586 36.9741C114.156 36.9775 112.76 37.4055 111.574 38.204C110.387 39.0026 109.464 40.1358 108.92 41.4604C108.376 42.785 108.236 44.2414 108.518 45.6456C108.801 47.0497 109.492 48.3385 110.505 49.3489C111.518 50.3594 112.807 51.0461 114.209 51.3222C115.612 51.5983 117.064 51.4515 118.384 50.9003C119.703 50.3491 120.829 49.4182 121.62 48.2254C122.412 47.0326 122.832 45.6314 122.829 44.1991C122.843 43.2436 122.664 42.295 122.305 41.41C121.945 40.5249 121.412 39.7214 120.736 39.0472C120.06 38.3731 119.256 37.8422 118.371 37.486C117.486 37.1298 116.539 36.9557 115.586 36.9741V36.9741ZM115.586 48.5851C114.71 48.6465 113.835 48.4424 113.077 47.9992C112.318 47.5561 111.71 46.8945 111.331 46.1004C110.953 45.3063 110.821 44.4165 110.954 43.5465C111.087 42.6766 111.478 41.8668 112.076 41.2225C112.674 40.5781 113.452 40.1289 114.308 39.9334C115.164 39.7379 116.059 39.805 116.877 40.126C117.694 40.4471 118.397 41.0072 118.892 41.7336C119.388 42.46 119.654 43.319 119.657 44.1991C119.684 44.7567 119.6 45.3142 119.409 45.8386C119.217 46.363 118.924 46.8438 118.544 47.2526C118.165 47.6614 117.707 47.9899 117.199 48.2187C116.691 48.4476 116.142 48.5721 115.586 48.5851ZM99.776 36.9741C98.3468 36.9775 96.9507 37.4055 95.7642 38.204C94.5778 39.0026 93.6542 40.1358 93.1104 41.4604C92.5665 42.785 92.4269 44.2414 92.709 45.6456C92.9911 47.0497 93.6823 48.3385 94.6953 49.3489C95.7083 50.3594 96.9975 51.0461 98.3999 51.3222C99.8023 51.5983 101.255 51.4515 102.574 50.9003C103.893 50.3491 105.02 49.4182 105.811 48.2254C106.602 47.0326 107.023 45.6314 107.019 44.1991C107.033 43.2436 106.855 42.295 106.495 41.41C106.136 40.5249 105.602 39.7214 104.926 39.0472C104.251 38.3731 103.446 37.8422 102.562 37.486C101.677 37.1298 100.729 36.9557 99.776 36.9741V36.9741ZM99.776 48.5851C98.9 48.6465 98.0259 48.4424 97.2672 47.9992C96.5084 47.5561 95.9003 46.8945 95.5218 46.1004C95.1432 45.3063 95.0118 44.4165 95.1446 43.5465C95.2774 42.6766 95.6682 41.8668 96.2663 41.2225C96.8645 40.5781 97.6421 40.1289 98.4983 39.9334C99.3545 39.7379 100.25 39.805 101.067 40.126C101.885 40.4471 102.587 41.0072 103.083 41.7336C103.579 42.46 103.845 43.319 103.847 44.1991C103.874 44.7567 103.79 45.3142 103.599 45.8386C103.408 46.363 103.114 46.8438 102.735 47.2526C102.355 47.6614 101.898 47.9899 101.39 48.2187C100.882 48.4476 100.333 48.5721 99.776 48.5851ZM80.9811 39.2011V42.2611H88.3091C88.1942 43.7024 87.5964 45.0623 86.6128 46.1201C85.8777 46.8707 84.9936 47.4582 84.0176 47.8448C83.0417 48.2313 81.9956 48.4082 80.9471 48.3641C78.7877 48.3641 76.7167 47.5044 75.1897 45.9741C73.6628 44.4438 72.8049 42.3683 72.8049 40.2041C72.8049 38.0399 73.6628 35.9644 75.1897 34.4341C76.7167 32.9038 78.7877 32.0441 80.9471 32.0441C83.0174 32.0132 85.0164 32.8011 86.511 34.2371L88.6653 32.0781C87.6543 31.076 86.4539 30.2861 85.1344 29.7548C83.8149 29.2235 82.4029 28.9615 80.9811 28.9841C79.4731 28.9253 77.9687 29.1722 76.5582 29.7099C75.1477 30.2477 73.86 31.0653 72.7723 32.1138C71.6846 33.1623 70.8193 34.42 70.2282 35.8116C69.6372 37.2032 69.3325 38.7001 69.3325 40.2126C69.3325 41.725 69.6372 43.2219 70.2282 44.6135C70.8193 46.0052 71.6846 47.2629 72.7723 48.3114C73.86 49.3598 75.1477 50.1775 76.5582 50.7152C77.9687 51.253 79.4731 51.4999 80.9811 51.4411C82.4321 51.4992 83.879 51.249 85.2267 50.707C86.5745 50.1649 87.7925 49.3433 88.801 48.2961C90.5823 46.335 91.5315 43.7557 91.4472 41.1051C91.4533 40.4671 91.4022 39.8299 91.2946 39.2011H80.9811ZM157.84 41.5811C157.398 40.2767 156.571 39.1378 155.468 38.3151C154.365 37.4924 153.039 37.0248 151.666 36.9741C150.738 36.9723 149.819 37.1612 148.967 37.5292C148.115 37.8972 147.347 38.4364 146.711 39.1136C146.076 39.7908 145.585 40.5914 145.27 41.4661C144.955 42.3408 144.823 43.271 144.881 44.1991C144.866 45.7509 145.353 47.2658 146.268 48.5175C147.184 49.7692 148.479 50.6905 149.96 51.1438C151.441 51.5971 153.028 51.5581 154.485 51.0326C155.942 50.5071 157.191 49.5233 158.044 48.2281L155.584 46.5281C155.218 47.1406 154.697 47.6463 154.076 47.9952C153.454 48.3441 152.752 48.524 152.039 48.5171C151.304 48.5475 150.576 48.3543 149.953 47.9629C149.329 47.5715 148.838 47.0002 148.545 46.3241L158.196 42.3291L157.84 41.5811ZM148.002 43.9951C147.967 43.467 148.038 42.9374 148.211 42.4372C148.383 41.9371 148.654 41.4764 149.006 41.0822C149.358 40.688 149.785 40.3682 150.262 40.1415C150.74 39.9148 151.257 39.7858 151.784 39.7621C152.331 39.7287 152.875 39.8576 153.349 40.1328C153.823 40.408 154.205 40.8172 154.448 41.3091L148.002 43.9951ZM140.165 50.9991H143.337V29.7491H140.165V50.9991ZM134.974 38.5891H134.855C134.382 38.0482 133.797 37.6164 133.141 37.323C132.485 37.0295 131.774 36.8816 131.056 36.8891C129.202 36.9792 127.454 37.7806 126.174 39.1273C124.894 40.474 124.18 42.2626 124.18 44.1226C124.18 45.9826 124.894 47.7712 126.174 49.1179C127.454 50.4646 129.202 51.266 131.056 51.3561C131.775 51.3705 132.488 51.2257 133.145 50.9318C133.802 50.6379 134.386 50.2023 134.855 49.6561H134.974V50.6931C134.974 53.4641 133.498 54.9431 131.124 54.9431C130.33 54.9256 129.56 54.6723 128.911 54.2152C128.261 53.7582 127.762 53.118 127.477 52.3761L124.729 53.5151C125.237 54.7939 126.12 55.8881 127.262 56.653C128.404 57.4179 129.75 57.8176 131.124 57.7991C134.838 57.7991 137.909 55.6061 137.909 50.2681V37.3991H134.974V38.5891ZM131.327 48.5851C130.216 48.5156 129.173 48.0242 128.41 47.2109C127.648 46.3976 127.223 45.3236 127.223 44.2076C127.223 43.0916 127.648 42.0176 128.41 41.2043C129.173 40.391 130.216 39.8995 131.327 39.8301C131.87 39.8536 132.403 39.9863 132.894 40.2205C133.385 40.4546 133.824 40.7853 134.185 41.1929C134.546 41.6006 134.821 42.0768 134.995 42.5932C135.168 43.1096 135.236 43.6558 135.195 44.1991C135.241 44.7443 135.176 45.2932 135.005 45.8126C134.834 46.3321 134.559 46.8113 134.197 47.2213C133.836 47.6313 133.395 47.9636 132.902 48.198C132.408 48.4324 131.873 48.5641 131.327 48.5851V48.5851ZM172.7 29.7491H165.1V50.9991H168.272V42.9411H172.7C173.604 43.0062 174.512 42.8839 175.366 42.5819C176.221 42.2799 177.005 41.8047 177.668 41.1858C178.332 40.567 178.861 39.8178 179.223 38.9849C179.585 38.1521 179.771 37.2534 179.771 36.3451C179.771 35.4367 179.585 34.5381 179.223 33.7053C178.861 32.8724 178.332 32.1232 177.668 31.5043C177.005 30.8855 176.221 30.4102 175.366 30.1083C174.512 29.8063 173.604 29.684 172.7 29.7491V29.7491ZM172.7 39.9491H168.272V32.7071H172.768C173.244 32.7071 173.716 32.8012 174.157 32.984C174.597 33.1668 174.997 33.4348 175.334 33.7726C175.672 34.1105 175.939 34.5115 176.121 34.9529C176.304 35.3943 176.398 35.8673 176.398 36.3451C176.398 36.8228 176.304 37.2959 176.121 37.7373C175.939 38.1787 175.672 38.5797 175.334 38.9175C174.997 39.2554 174.597 39.5233 174.157 39.7062C173.716 39.889 173.244 39.9831 172.768 39.9831L172.7 39.9491ZM192.275 36.9061C191.12 36.8347 189.969 37.1042 188.965 37.6813C187.961 38.2584 187.148 39.1178 186.626 40.1531L189.425 41.3261C189.708 40.8151 190.133 40.3971 190.647 40.1225C191.162 39.848 191.745 39.7287 192.326 39.7791C192.729 39.732 193.137 39.7657 193.526 39.8782C193.916 39.9908 194.279 40.18 194.595 40.4348C194.911 40.6896 195.173 41.0048 195.366 41.3622C195.558 41.7195 195.678 42.1118 195.719 42.5161V42.7201C194.698 42.1827 193.563 41.9027 192.411 41.9041C189.391 41.9041 186.304 43.6041 186.304 46.6981C186.334 47.3557 186.495 48.0006 186.779 48.5945C187.062 49.1884 187.462 49.7191 187.954 50.1552C188.446 50.5913 189.021 50.9238 189.643 51.133C190.266 51.3423 190.925 51.4239 191.58 51.3731C192.376 51.4172 193.169 51.2484 193.878 50.8839C194.588 50.5195 195.188 49.9725 195.617 49.2991H195.719V50.9991H198.772V42.8221C198.772 39.0991 195.956 36.9401 192.343 36.9401L192.275 36.9061ZM191.885 48.5511C190.85 48.5511 189.408 48.0241 189.408 46.7491C189.408 45.0491 191.206 44.4711 192.801 44.4711C193.809 44.4462 194.804 44.6927 195.685 45.1851C195.578 46.1083 195.141 46.9615 194.455 47.5867C193.769 48.2119 192.88 48.5666 191.953 48.5851L191.885 48.5511ZM209.9 37.3991L206.27 46.6131H206.168L202.402 37.3991H199.009L204.658 50.2851L201.435 57.4421H204.743L213.428 37.3991H209.9ZM181.402 50.9991H184.557V29.7491H181.402V50.9991Z" fill="white"/>
<path d="M17.7093 12.8172C17.1504 13.4796 16.8651 14.331 16.9121 15.1972V52.8012C16.8544 53.6689 17.1409 54.5243 17.7093 55.1812L17.8281 55.3172L38.8452 34.2542V33.7442L17.8281 12.6982L17.7093 12.8172Z" fill="url(#paint0_linear_111_439)"/>
<path d="M45.8 41.2766L38.8452 34.2556V33.7456L45.8 26.7246L45.9527 26.8266L54.2815 31.5526C56.6563 32.8956 56.6563 35.1056 54.2815 36.4656L45.9866 41.1916L45.8 41.2766Z" fill="url(#paint1_linear_111_439)"/>
<path d="M46.0036 41.175L38.8452 34.001L17.7094 55.183C18.1887 55.6106 18.8022 55.8566 19.4436 55.8783C20.0849 55.9 20.7136 55.6961 21.2207 55.302L46.0036 41.175" fill="url(#paint2_linear_111_439)"/>
<path d="M46.0036 26.825L21.2207 12.715C20.7169 12.3154 20.0887 12.1065 19.4465 12.1252C18.8043 12.1438 18.1892 12.3888 17.7094 12.817L38.8452 33.999L46.0036 26.825Z" fill="url(#paint3_linear_111_439)"/>
<path opacity="0.2" d="M45.8 41.0225L21.2207 55.0475C20.7321 55.417 20.1366 55.617 19.5244 55.617C18.9122 55.617 18.3167 55.417 17.8281 55.0475V55.0475L17.7094 55.1665L17.8281 55.3025C18.3167 55.672 18.9122 55.872 19.5244 55.872C20.1366 55.872 20.7321 55.672 21.2207 55.3025L46.0036 41.1755L45.8 41.0225Z" fill="black"/>
<path opacity="0.12" d="M17.7093 54.9449C17.1645 54.2706 16.8975 53.413 16.963 52.5479V52.8029C16.9053 53.6705 17.1918 54.5259 17.7602 55.1829L17.879 55.0639L17.7093 54.9449Z" fill="black"/>
<path opacity="0.12" d="M54.2815 36.211L45.8 41.022L45.9527 41.175L54.2815 36.449C54.7732 36.2406 55.1997 35.9033 55.5161 35.4725C55.8325 35.0417 56.0272 34.5333 56.0796 34.001C55.9736 34.4847 55.7556 34.9368 55.4433 35.3206C55.1309 35.7045 54.733 36.0095 54.2815 36.211Z" fill="black"/>
<path opacity="0.25" d="M21.2207 12.9552L54.2815 31.7912C54.733 31.9927 55.1309 32.2977 55.4433 32.6816C55.7556 33.0654 55.9735 33.5175 56.0796 34.0012C56.0272 33.4689 55.8325 32.9605 55.5161 32.5297C55.1996 32.0989 54.7732 31.7616 54.2815 31.5532L21.2207 12.7172C18.8629 11.3572 16.9121 12.4792 16.9121 15.1992V15.4542C16.963 12.7342 18.8629 11.6122 21.2207 12.9552Z" fill="white"/>
<path d="M71.4312 24.2584H70.1929V20.8584H71.2446C71.7178 20.3436 72.0736 19.7318 72.2874 19.0655C72.5012 18.3991 72.5679 17.6942 72.4829 16.9994V11.8994H79.2681V20.8414H80.4046V24.2414H79.1493V22.0994H71.4312V24.2584ZM73.789 16.9994C73.8647 18.365 73.5277 19.7217 72.8221 20.8924H77.911V13.1574H73.789V16.9994Z" fill="white" stroke="white" stroke-width="0.411304" stroke-miterlimit="10"/>
<path d="M90.5992 20.7753C90.1107 21.2662 89.5303 21.6557 88.8914 21.9214C88.2525 22.1871 87.5675 22.3239 86.8758 22.3239C86.184 22.3239 85.4991 22.1871 84.8601 21.9214C84.2212 21.6557 83.6409 21.2662 83.1524 20.7753C82.182 19.7596 81.6403 18.4076 81.6403 17.0013C81.6403 15.595 82.182 14.2431 83.1524 13.2273C83.6409 12.7364 84.2212 12.347 84.8601 12.0812C85.4991 11.8155 86.184 11.6787 86.8758 11.6787C87.5675 11.6787 88.2525 11.8155 88.8914 12.0812C89.5303 12.347 90.1107 12.7364 90.5992 13.2273C91.0892 13.7237 91.4752 14.3133 91.7345 14.9614C91.9937 15.6096 92.121 16.3031 92.1089 17.0013C92.1289 17.7005 92.0052 18.3964 91.7455 19.0456C91.4858 19.6949 91.0956 20.2836 90.5992 20.7753V20.7753ZM84.1023 19.9253C84.4598 20.2973 84.8896 20.5919 85.3652 20.7907C85.8408 20.9896 86.352 21.0885 86.8673 21.0813C87.383 21.0916 87.8952 20.9941 88.3712 20.795C88.8473 20.596 89.2767 20.2998 89.6323 19.9253C90.3642 19.1282 90.7705 18.0846 90.7705 17.0013C90.7705 15.9181 90.3642 14.8744 89.6323 14.0773C89.2767 13.7028 88.8473 13.4066 88.3712 13.2076C87.8952 13.0086 87.383 12.9111 86.8673 12.9213C86.352 12.9141 85.8408 13.013 85.3652 13.2119C84.8896 13.4107 84.4598 13.7053 84.1023 14.0773C83.3812 14.8797 82.9821 15.9214 82.9821 17.0013C82.9821 18.0812 83.3812 19.1229 84.1023 19.9253Z" fill="white" stroke="white" stroke-width="0.411304" stroke-miterlimit="10"/>
<path d="M98.6905 22.3209C98.0042 22.3316 97.3228 22.2032 96.6873 21.9432C96.0518 21.6831 95.4753 21.297 94.9926 20.8079C94.0138 19.7828 93.4675 18.4187 93.4675 16.9999C93.4675 15.5811 94.0138 14.217 94.9926 13.1919C95.4832 12.6943 96.0707 12.3033 96.7185 12.043C97.3664 11.7827 98.0607 11.6588 98.7584 11.6789C99.4685 11.6587 100.174 11.8014 100.821 12.096C101.467 12.3906 102.038 12.8294 102.49 13.3789L101.591 14.2629C101.258 13.8335 100.827 13.4905 100.334 13.2627C99.8409 13.0349 99.3006 12.929 98.7584 12.9539C98.2362 12.9405 97.7169 13.0347 97.2326 13.2306C96.7482 13.4266 96.3091 13.72 95.9425 14.0929C95.2118 14.8973 94.8069 15.946 94.8069 17.0339C94.8069 18.1217 95.2118 19.1704 95.9425 19.9749C96.3091 20.3477 96.7482 20.6412 97.2326 20.8371C97.7169 21.033 98.2362 21.1272 98.7584 21.1139C99.3413 21.0973 99.9135 20.9533 100.435 20.6919C100.957 20.4306 101.415 20.0582 101.778 19.6009L102.694 20.5019C102.229 21.06 101.651 21.5121 100.997 21.8279C100.276 22.1657 99.4869 22.3343 98.6905 22.3209Z" fill="white" stroke="white" stroke-width="0.411304" stroke-miterlimit="10"/>
<path d="M108.02 22.0994H106.714V13.1574H103.864V11.8994H110.853V13.1574H108.02V22.0994Z" fill="white" stroke="white" stroke-width="0.411304" stroke-miterlimit="10"/>
<path d="M119.843 11.8994L115.993 20.5014C115.899 20.8463 115.732 21.1667 115.503 21.4405C115.274 21.7142 114.988 21.9347 114.665 22.0867C114.342 22.2387 113.991 22.3186 113.634 22.3208C113.277 22.323 112.925 22.2474 112.6 22.0994L112.939 20.8924C113.147 21.0093 113.38 21.0735 113.618 21.0794C113.869 21.092 114.118 21.0267 114.33 20.8924C114.536 20.7206 114.694 20.4979 114.788 20.2464L115.162 19.4304L111.769 11.8994H113.313L115.823 17.7474L118.3 11.8994H119.843Z" fill="white" stroke="white" stroke-width="0.411304" stroke-miterlimit="10"/>
<path d="M121.319 22.0994V11.8994H128.681V22.0994H127.375V13.1574H122.625V22.0994H121.319Z" fill="white" stroke="white" stroke-width="0.411304" stroke-miterlimit="10"/>
<path d="M131.005 22.0994V11.8994H132.311V16.2684H137.4V11.8994H138.723V22.0994H137.4V17.4924H132.311V22.0994H131.005Z" fill="white" stroke="white" stroke-width="0.411304" stroke-miterlimit="10"/>
<path d="M149.376 20.7753C148.886 21.2667 148.304 21.6565 147.664 21.9225C147.024 22.1885 146.337 22.3254 145.644 22.3254C144.951 22.3254 144.265 22.1885 143.624 21.9225C142.984 21.6565 142.402 21.2667 141.912 20.7753C140.942 19.7596 140.4 18.4076 140.4 17.0013C140.4 15.595 140.942 14.2431 141.912 13.2273C142.401 12.7364 142.981 12.347 143.62 12.0812C144.259 11.8155 144.944 11.6787 145.636 11.6787C146.327 11.6787 147.012 11.8155 147.651 12.0812C148.29 12.347 148.87 12.7364 149.359 13.2273C150.322 14.247 150.858 15.5975 150.858 17.0013C150.858 18.4051 150.322 19.7556 149.359 20.7753H149.376ZM142.879 19.9253C143.235 20.2998 143.664 20.596 144.14 20.795C144.616 20.9941 145.128 21.0916 145.644 21.0813C146.159 21.0885 146.671 20.9896 147.146 20.7907C147.622 20.5919 148.052 20.2973 148.409 19.9253C149.13 19.1229 149.529 18.0812 149.529 17.0013C149.529 15.9214 149.13 14.8797 148.409 14.0773C148.052 13.7053 147.622 13.4107 147.146 13.2119C146.671 13.013 146.159 12.9141 145.644 12.9213C145.128 12.9111 144.616 13.0086 144.14 13.2076C143.664 13.4066 143.235 13.7028 142.879 14.0773C142.147 14.8744 141.741 15.9181 141.741 17.0013C141.741 18.0846 142.147 19.1282 142.879 19.9253V19.9253Z" fill="white" stroke="white" stroke-width="0.411304" stroke-miterlimit="10"/>
<path d="M156.212 22.0996V11.8996H159.893C160.656 11.8919 161.394 12.1709 161.962 12.6816C162.246 12.9281 162.472 13.234 162.624 13.5777C162.776 13.9214 162.852 14.2945 162.844 14.6706C162.848 15.1285 162.719 15.5776 162.471 15.9626C162.221 16.3276 161.874 16.6159 161.47 16.7956V16.7956C161.96 16.9634 162.39 17.2706 162.709 17.6796C163.02 18.0962 163.187 18.6038 163.184 19.1246C163.192 19.5165 163.115 19.9055 162.956 20.2639C162.798 20.6224 162.563 20.9415 162.268 21.1986C161.679 21.7476 160.9 22.0463 160.096 22.0316L156.212 22.0996ZM157.518 16.2686H159.893C160.115 16.2815 160.337 16.2438 160.543 16.1584C160.748 16.073 160.932 15.9422 161.08 15.7756C161.368 15.4931 161.532 15.1081 161.538 14.7046C161.554 14.2997 161.415 13.9042 161.148 13.5996C161.005 13.441 160.83 13.3161 160.633 13.2338C160.437 13.1515 160.224 13.1139 160.012 13.1236H157.569L157.518 16.2686ZM157.518 20.8416H160.164C160.394 20.8493 160.623 20.8061 160.834 20.715C161.045 20.6239 161.233 20.4871 161.386 20.3146C161.678 20.0011 161.842 19.588 161.844 19.1586C161.833 18.7327 161.664 18.3262 161.369 18.0196C161.205 17.8475 161.007 17.7117 160.788 17.6209C160.569 17.5301 160.333 17.4864 160.096 17.4926H157.518V20.8416Z" fill="white" stroke="white" stroke-width="0.411304" stroke-miterlimit="10"/>
</g>
<defs>
<linearGradient id="paint0_linear_111_439" x1="36.9793" y1="14.8062" x2="8.45333" y2="43.27" gradientUnits="userSpaceOnUse">
<stop stop-color="#00A0FF"/>
<stop offset="0.01" stop-color="#00A1FF"/>
<stop offset="0.26" stop-color="#00BEFF"/>
<stop offset="0.51" stop-color="#00D2FF"/>
<stop offset="0.76" stop-color="#00DFFF"/>
<stop offset="1" stop-color="#00E3FF"/>
</linearGradient>
<linearGradient id="paint1_linear_111_439" x1="57.3857" y1="34.0006" x2="16.3523" y2="34.0006" gradientUnits="userSpaceOnUse">
<stop stop-color="#FFE000"/>
<stop offset="0.41" stop-color="#FFBD00"/>
<stop offset="0.78" stop-color="#FFA500"/>
<stop offset="1" stop-color="#FF9C00"/>
</linearGradient>
<linearGradient id="paint2_linear_111_439" x1="42.1191" y1="37.911" x2="3.42718" y2="76.5016" gradientUnits="userSpaceOnUse">
<stop stop-color="#FF3A44"/>
<stop offset="1" stop-color="#C31162"/>
</linearGradient>
<linearGradient id="paint3_linear_111_439" x1="12.383" y1="0.305021" x2="29.6549" y2="17.5393" gradientUnits="userSpaceOnUse">
<stop stop-color="#32A071"/>
<stop offset="0.07" stop-color="#2DA771"/>
<stop offset="0.48" stop-color="#15CF74"/>
<stop offset="0.8" stop-color="#06E775"/>
<stop offset="1" stop-color="#00F076"/>
</linearGradient>
<clipPath id="clip0_111_439">
<rect width="229" height="68" fill="white"/>
</clipPath>
</defs>
</svg>
