<svg width="40" height="40" viewBox="0 0 40 40" fill="none" xmlns="http://www.w3.org/2000/svg">
<mask id="mask0_177_102" style="mask-type:alpha" maskUnits="userSpaceOnUse" x="0" y="0" width="40" height="40">
<rect width="40" height="40" fill="#D9D9D9"/>
</mask>
<g mask="url(#mask0_177_102)">
<path d="M10.1256 25.0835H12.3478V21.5002H16.2367V25.0835H18.4589V14.9169H16.2367V19.278H12.3478V14.9169H10.1256V25.0835ZM21.5567 25.0835H27.9456C28.4734 25.0835 28.9294 24.8914 29.3137 24.5072C29.6979 24.1229 29.89 23.6669 29.89 23.1391V16.8613C29.89 16.3335 29.6979 15.8775 29.3137 15.4932C28.9294 15.109 28.4734 14.9169 27.9456 14.9169H21.5567V25.0835ZM23.7789 22.8613V17.1391H27.6678V22.8613H23.7789ZM6.34658 33.993C5.33436 33.993 4.46918 33.6339 3.75104 32.9158C3.0329 32.1976 2.67383 31.3325 2.67383 30.3202V9.68016C2.67383 8.66363 3.0329 7.79476 3.75104 7.07353C4.46918 6.35231 5.33436 5.9917 6.34658 5.9917H33.6533C34.6699 5.9917 35.5387 6.35231 36.26 7.07353C36.9812 7.79476 37.3418 8.66363 37.3418 9.68016V30.3202C37.3418 31.3325 36.9812 32.1976 36.26 32.9158C35.5387 33.6339 34.6699 33.993 33.6533 33.993H6.34658ZM6.34658 30.3202H33.6533V9.68016H6.34658V30.3202Z" fill="#1C1B1F"/>
</g>
</svg>
