<svg width="26" height="25" viewBox="0 0 26 25" fill="none" xmlns="http://www.w3.org/2000/svg">
<path d="M13 11.9736C11.3317 11.9736 9.90351 11.3874 8.71545 10.215C7.52739 9.04259 6.93336 7.6332 6.93336 5.98683C6.93336 4.34044 7.52739 2.93105 8.71545 1.75864C9.90351 0.586215 11.3317 0 13 0C14.6683 0 16.0965 0.586215 17.2846 1.75864C18.4726 2.93105 19.0666 4.34044 19.0666 5.98683C19.0666 7.6332 18.4726 9.04259 17.2846 10.215C16.0965 11.3874 14.6683 11.9736 13 11.9736ZM3.80261 25C1.70249 25 0 23.2975 0 21.1974C0 20.3597 0.230563 19.5839 0.691688 18.8701C1.15279 18.1563 1.76889 17.6075 2.53999 17.2237C4.25334 16.3948 5.98168 15.7731 7.72501 15.3586C9.46835 14.9441 11.2267 14.7369 13 14.7369C14.7733 14.7369 16.5316 14.9441 18.275 15.3586C20.0183 15.7731 21.7467 16.3948 23.46 17.2237C24.2311 17.6075 24.8472 18.1563 25.3083 18.8701C25.7694 19.5839 26 20.3597 26 21.1974C26 23.2975 24.2975 25 22.1974 25H3.80261ZM2.59996 21.1974C2.59996 21.8805 3.15372 22.4342 3.83681 22.4342H22.1632C22.8463 22.4342 23.4 21.8805 23.4 21.1974C23.4 20.8509 23.2984 20.5302 23.095 20.2352C22.8917 19.9403 22.6156 19.6996 22.2667 19.5132C20.7734 18.7873 19.2506 18.2374 17.6986 17.8635C16.1465 17.4896 14.5803 17.3026 13 17.3026C11.4197 17.3026 9.85353 17.4896 8.30144 17.8635C6.74935 18.2374 5.22664 18.7873 3.73331 19.5132C3.38442 19.6996 3.10831 19.9403 2.90499 20.2352C2.70164 20.5302 2.59996 20.8509 2.59996 21.1974ZM13 9.4079C13.9533 9.4079 14.7694 9.07293 15.4483 8.40297C16.1272 7.73301 16.4667 6.92763 16.4667 5.98683C16.4667 5.04604 16.1272 4.24066 15.4483 3.5707C14.7694 2.90074 13.9533 2.56576 13 2.56576C12.0467 2.56576 11.2305 2.90074 10.5517 3.5707C9.87277 4.24066 9.53332 5.04604 9.53332 5.98683C9.53332 6.92763 9.87277 7.73301 10.5517 8.40297C11.2305 9.07293 12.0467 9.4079 13 9.4079Z" fill="white"/>
</svg>
