<svg width="40" height="40" viewBox="0 0 40 40" fill="none" xmlns="http://www.w3.org/2000/svg">
<mask id="mask0_177_90" style="mask-type:alpha" maskUnits="userSpaceOnUse" x="0" y="0" width="40" height="40">
<rect width="40" height="40" fill="#D9D9D9"/>
</mask>
<g mask="url(#mask0_177_90)">
<path d="M12.7777 39.2282C11.7517 39.2282 10.883 38.8726 10.1718 38.1615C9.46064 37.4502 9.10504 36.5815 9.10504 35.5554V4.44428C9.10504 3.41386 9.46064 2.54153 10.1718 1.82728C10.883 1.113 11.7517 0.755859 12.7777 0.755859H27.2222C28.2527 0.755859 29.125 1.113 29.8393 1.82728C30.5535 2.54153 30.9107 3.41386 30.9107 4.44428V35.5554C30.9107 36.5815 30.5535 37.4502 29.8393 38.1615C29.125 38.8726 28.2527 39.2282 27.2222 39.2282H12.7777ZM12.7777 35.5554H27.2222V4.44428H12.7777V35.5554ZM20.0033 16.3887C21.3159 16.3887 22.4305 15.9293 23.3472 15.0105C24.2639 14.0916 24.7222 12.9759 24.7222 11.6633C24.7222 10.3506 24.2628 9.23598 23.344 8.31932C22.4251 7.40265 21.3094 6.94432 19.9967 6.94432C18.6841 6.94432 17.5695 7.40373 16.6528 8.32257C15.7361 9.24143 15.2778 10.3572 15.2778 11.6698C15.2778 12.9824 15.7372 14.0971 16.656 15.0137C17.5749 15.9304 18.6906 16.3887 20.0033 16.3887ZM20.0049 13.611C19.4553 13.611 18.993 13.4251 18.618 13.0534C18.243 12.6816 18.0555 12.221 18.0555 11.6714C18.0555 11.1218 18.2414 10.6596 18.6132 10.2846C18.9849 9.90957 19.4456 9.72207 19.9951 9.72207C20.5447 9.72207 21.007 9.90794 21.382 10.2797C21.757 10.6514 21.9445 11.1121 21.9445 11.6617C21.9445 12.2112 21.7586 12.6735 21.3868 13.0485C21.0151 13.4235 20.5544 13.611 20.0049 13.611ZM16.6715 23.0554C17.0664 23.0554 17.3958 22.9218 17.6597 22.6547C17.9236 22.3876 18.0555 22.0565 18.0555 21.6617C18.0555 21.2668 17.922 20.9374 17.6548 20.6735C17.3877 20.4096 17.0567 20.2777 16.6618 20.2777C16.2669 20.2777 15.9375 20.4112 15.6736 20.6784C15.4097 20.9455 15.2778 21.2765 15.2778 21.6714C15.2778 22.0663 15.4114 22.3957 15.6785 22.6596C15.9456 22.9235 16.2767 23.0554 16.6715 23.0554ZM23.3382 23.0554C23.7331 23.0554 24.0625 22.9218 24.3264 22.6547C24.5903 22.3876 24.7222 22.0565 24.7222 21.6617C24.7222 21.2668 24.5886 20.9374 24.3215 20.6735C24.0544 20.4096 23.7233 20.2777 23.3285 20.2777C22.9336 20.2777 22.6042 20.4112 22.3403 20.6784C22.0764 20.9455 21.9445 21.2765 21.9445 21.6714C21.9445 22.0663 22.078 22.3957 22.3452 22.6596C22.6123 22.9235 22.9433 23.0554 23.3382 23.0554ZM16.6715 28.0554C17.0664 28.0554 17.3958 27.9218 17.6597 27.6547C17.9236 27.3876 18.0555 27.0565 18.0555 26.6617C18.0555 26.2668 17.922 25.9374 17.6548 25.6735C17.3877 25.4096 17.0567 25.2777 16.6618 25.2777C16.2669 25.2777 15.9375 25.4112 15.6736 25.6784C15.4097 25.9455 15.2778 26.2765 15.2778 26.6714C15.2778 27.0663 15.4114 27.3957 15.6785 27.6596C15.9456 27.9235 16.2767 28.0554 16.6715 28.0554ZM23.3382 28.0554C23.7331 28.0554 24.0625 27.9218 24.3264 27.6547C24.5903 27.3876 24.7222 27.0565 24.7222 26.6617C24.7222 26.2668 24.5886 25.9374 24.3215 25.6735C24.0544 25.4096 23.7233 25.2777 23.3285 25.2777C22.9336 25.2777 22.6042 25.4112 22.3403 25.6784C22.0764 25.9455 21.9445 26.2765 21.9445 26.6714C21.9445 27.0663 22.078 27.3957 22.3452 27.6596C22.6123 27.9235 22.9433 28.0554 23.3382 28.0554ZM16.6715 33.0554C17.0664 33.0554 17.3958 32.9218 17.6597 32.6547C17.9236 32.3876 18.0555 32.0565 18.0555 31.6617C18.0555 31.2668 17.922 30.9374 17.6548 30.6735C17.3877 30.4096 17.0567 30.2777 16.6618 30.2777C16.2669 30.2777 15.9375 30.4112 15.6736 30.6784C15.4097 30.9455 15.2778 31.2765 15.2778 31.6714C15.2778 32.0663 15.4114 32.3957 15.6785 32.6596C15.9456 32.9235 16.2767 33.0554 16.6715 33.0554ZM23.3382 33.0554C23.7331 33.0554 24.0625 32.9218 24.3264 32.6547C24.5903 32.3876 24.7222 32.0565 24.7222 31.6617C24.7222 31.2668 24.5886 30.9374 24.3215 30.6735C24.0544 30.4096 23.7233 30.2777 23.3285 30.2777C22.9336 30.2777 22.6042 30.4112 22.3403 30.6784C22.0764 30.9455 21.9445 31.2765 21.9445 31.6714C21.9445 32.0663 22.078 32.3957 22.3452 32.6596C22.6123 32.9235 22.9433 33.0554 23.3382 33.0554Z" fill="#1C1B1F"/>
</g>
</svg>
