<svg width="40" height="32" viewBox="0 0 40 32" fill="none" xmlns="http://www.w3.org/2000/svg">
<path fill-rule="evenodd" clip-rule="evenodd" d="M2.74979 13.7758C13.4872 9.25985 20.6471 6.28267 24.2296 4.84424C34.4584 0.737239 36.5838 0.0238091 37.9692 0.00025118C38.2739 -0.00493012 38.9551 0.0679637 39.3964 0.413632C39.769 0.705508 39.8716 1.09979 39.9206 1.37652C39.9697 1.65325 40.0308 2.28365 39.9822 2.77623C39.4279 8.3984 37.0295 22.0419 35.8093 28.3389C35.293 31.0033 34.2763 31.8967 33.2921 31.9841C31.1532 32.1741 29.529 30.6196 27.4573 29.3087C24.2156 27.2573 22.3842 25.9804 19.2376 23.9787C15.6011 21.6653 17.9585 20.3939 20.0309 18.316C20.5733 17.7722 29.9974 9.49735 30.1798 8.74669C30.2026 8.65281 30.2238 8.30286 30.0085 8.11807C29.7931 7.93329 29.4752 7.99648 29.2459 8.04673C28.9207 8.11797 23.742 11.4222 13.7097 17.9596C12.2398 18.9339 10.9083 19.4087 9.7154 19.3838C8.40029 19.3564 5.87055 18.666 3.98995 18.0759C1.68332 17.3521 -0.149946 16.9694 0.00969037 15.7402C0.0928388 15.0999 1.00621 14.4451 2.74979 13.7758Z" fill="#868686"/>
</svg>
