<svg width="42" height="41" viewBox="0 0 42 41" fill="none" xmlns="http://www.w3.org/2000/svg">
<path fill-rule="evenodd" clip-rule="evenodd" d="M22.1323 0.0251201C27.3331 0.273566 32.1793 2.35818 35.8807 5.9584C39.8289 9.79846 42.0021 14.9029 42 20.3313C41.9953 31.5333 32.6133 40.6477 21.088 40.6477C16.7539 40.6477 13.3098 39.3533 11.0859 38.1748L0 41L2.96684 30.472C1.1368 27.391 0.173837 23.896 0.175346 20.3152C0.179974 9.11352 9.56116 0 21.0877 0L22.1323 0.0251201ZM11.5994 34.4968L12.2342 34.8627C14.9029 36.4013 17.9619 37.2154 21.0808 37.2165H21.0879C30.6681 37.2165 38.4653 29.6412 38.4691 20.3301C38.4709 15.8181 36.6647 11.5755 33.3831 8.38373C30.1014 5.19176 25.7374 3.43289 21.0948 3.43143C11.5073 3.43143 3.70998 11.006 3.70616 20.3164C3.70485 23.5071 4.62374 26.6146 6.36364 29.303L6.77692 29.942L5.02102 36.1733L11.5994 34.4968ZM31.6233 25.1625C31.4927 24.9506 31.1444 24.8237 30.6219 24.5695C30.0993 24.3154 27.5304 23.0874 27.0514 22.9178C26.5725 22.7486 26.2241 22.664 25.8758 23.172C25.5275 23.6801 24.5261 24.8237 24.2212 25.1625C23.9165 25.5013 23.6117 25.5437 23.0892 25.2896C22.5667 25.0356 20.8831 24.4994 18.8872 22.7699C17.3338 21.4238 16.2852 19.7615 15.9803 19.2533C15.6756 18.7451 15.9478 18.4703 16.2094 18.2173C16.4445 17.9897 16.732 17.6243 16.9933 17.3279C17.2546 17.0315 17.3416 16.8196 17.5158 16.481C17.69 16.1421 17.6028 15.8458 17.4723 15.5917C17.3416 15.3375 16.2966 12.8387 15.8612 11.8223C15.437 10.8325 15.0062 10.9665 14.6855 10.9509C14.3811 10.9362 14.0324 10.933 13.6841 10.933C13.3357 10.933 12.7696 11.0599 12.2907 11.5683C11.8117 12.0764 10.4618 13.3047 10.4618 15.8032C10.4618 18.2879 12.3132 20.6885 12.5909 21.0486L12.5955 21.0546C12.8568 21.3935 16.28 26.5208 21.5217 28.7198C22.7683 29.2429 23.7416 29.5552 24.5005 29.7892C25.7523 30.1755 26.8913 30.1211 27.7917 29.9903C28.7956 29.8446 30.8831 28.7622 31.3185 27.5766C31.7539 26.3906 31.7539 25.3742 31.6233 25.1625Z" fill="#868686"/>
</svg>
